<svg width="563" height="563" viewBox="0 0 563 563" fill="none" xmlns="http://www.w3.org/2000/svg">
<g clip-path="url(#clip0)">
<path opacity="0.58" d="M116.851 345.513C96.8509 338.283 81.3109 319.893 77.5209 298.964C73.7309 278.034 81.8409 255.363 98.0509 241.583C103.231 237.173 109.141 233.644 114.151 229.044C130.681 213.883 134.851 186.934 123.681 167.484C116.681 155.284 104.821 146.524 97.4209 134.564C80.9009 107.894 91.9109 70.0035 116.861 50.9735C141.811 31.9435 176.641 29.7235 206.721 38.6835C215.901 41.4135 224.801 45.0935 234.121 47.3035C282.701 58.7935 330.131 29.2935 376.611 11.1035C399.811 2.0235 426.411 -4.2565 449.151 5.9335C475.771 17.8535 488.851 53.2435 476.381 79.6135C469.521 94.1335 456.781 104.824 446.001 116.724C435.221 128.624 425.731 143.773 427.871 159.684C430.851 181.833 453.801 194.493 468.601 211.243C497.511 243.973 491.921 300.974 457.201 327.464C446.301 335.784 433.401 341.163 420.211 344.923C383.561 355.383 344.381 353.784 306.901 346.893C275.551 341.133 245.121 343.763 213.621 343.023C181.521 342.273 148.391 356.913 116.851 345.513Z" fill="url(#paint0_linear)"/>
<path d="M251.6 221.563C267.44 222.323 283.27 223.083 299.11 223.833C300.09 223.883 301.13 223.943 301.93 224.513C303.03 225.293 303.34 226.763 303.57 228.093C304.97 236.233 306.38 244.383 307.78 252.523C308.19 254.923 308.6 257.383 308.13 259.763C307.78 261.503 306.98 263.123 306.09 264.653C297.68 279.153 279.77 287.883 263.39 284.333C250.35 281.513 239.37 270.573 236.26 257.623C234.23 249.143 236.56 247.773 241.83 241.913C246.94 236.253 250.4 229.093 251.6 221.563Z" fill="#E27554"/>
<path d="M363.321 407.624C362.031 393.594 360.581 379.044 353.401 366.924C364.361 353.844 384.181 349.104 399.871 355.824C395.991 349.714 393.931 342.644 391.921 335.694C386.861 318.144 381.791 300.604 376.731 283.054C375.091 277.364 373.401 271.574 370.041 266.694C362.361 255.514 347.941 251.594 334.741 248.474C329.051 247.134 323.371 245.784 317.681 244.444C314.961 243.804 311.781 243.264 309.651 245.064C308.141 246.344 307.661 248.424 307.151 250.334C304.181 261.474 296.891 271.964 286.231 276.354C273.911 281.424 258.351 276.824 250.781 265.864C245.601 258.374 244.191 248.984 242.911 239.964C235.831 241.174 229.081 243.834 222.401 246.474C211.071 250.944 199.741 255.414 188.411 259.884C184.271 261.514 179.951 263.274 177.071 266.674C172.841 271.664 172.711 278.954 169.571 284.694C167.851 287.834 165.251 290.474 163.841 293.764C162.391 297.154 162.321 300.934 162.121 304.614C161.011 324.564 155.211 344.244 145.311 361.594C146.771 358.074 151.591 357.794 155.371 358.264C171.261 360.244 186.751 365.434 200.631 373.434C195.201 380.174 193.291 389.094 193.101 397.754C192.731 414.594 192.371 431.464 193.371 448.284C193.921 457.434 194.861 466.714 193.081 475.704C192.411 479.094 191.351 482.434 191.091 485.884C190.571 492.844 193.351 499.764 192.701 506.714C192.091 513.204 188.561 519.814 190.881 525.914C191.481 527.494 192.451 528.914 192.941 530.534C194.571 535.934 190.491 541.744 191.801 547.234C191.961 547.904 192.421 548.694 193.101 548.584C193.781 548.464 193.131 547.104 192.811 547.714C193.451 552.404 200.341 556.604 205.001 557.374C252.451 565.174 301.341 564.084 348.391 554.174C351.641 553.494 354.961 552.734 357.781 550.974C360.601 549.214 362.881 546.244 362.931 542.924C362.981 539.354 360.571 536.264 359.511 532.854C356.711 523.784 363.701 514.874 365.761 505.614C366.721 501.294 366.601 496.794 367.411 492.434C368.271 487.804 364.781 451.854 363.321 447.574C361.631 442.594 361.591 437.234 361.581 431.984C361.551 422.274 364.201 417.264 363.321 407.624Z" fill="#F8C88D"/>
<path d="M192.7 506.714C192.62 507.614 192.47 508.514 192.3 509.424C194.96 515.454 200.18 521.404 204.93 524.744C208.3 527.104 212.12 528.474 216.14 529.284C211.49 526.164 207.35 522.054 204.25 518.384C199.54 512.814 196.88 506.204 194.08 499.564C193.24 497.584 192.4 495.604 191.53 493.634C192.16 497.984 193.1 502.344 192.7 506.714Z" fill="#BE9767"/>
<path d="M222.281 536.044C214.721 535.434 207.291 533.864 201.151 529.374C197.451 526.664 193.491 522.654 190.381 518.174C189.961 520.814 189.921 523.404 190.871 525.904C191.411 527.324 192.241 528.634 192.761 530.064C201.331 535.234 212.241 537.494 222.281 536.044Z" fill="#BE9767"/>
<path d="M229.09 541.224C228.4 541.444 227.78 541.414 227.26 541.224C217.56 543.544 206.88 542.564 197.44 538.924C202.86 542.344 209.58 544.244 215.36 544.864C226.51 546.054 237.15 543.014 247.27 538.664C243.92 538.754 240.57 538.844 237.21 538.894C234.48 539.584 231.78 540.384 229.09 541.224Z" fill="#BE9767"/>
<path d="M346.21 493.894C346.62 489.834 347.15 485.754 347.34 481.704C346.95 483.064 346.5 484.404 345.95 485.714C343.47 491.684 338.92 496.404 333.67 500.054C326.16 505.264 316.24 510.474 306.41 512.574C320.94 514.724 339.21 506.554 346.21 493.894Z" fill="#BE9767"/>
<path d="M257.821 507.694C267.051 513.234 277.211 513.144 287.121 510.874C276.711 510.204 266.681 506.684 257.501 501.194C251.301 497.474 245.411 492.884 240.231 487.834C239.431 487.054 238.711 486.234 238.011 485.384C242.901 494.264 249.191 502.524 257.821 507.694Z" fill="#BE9767"/>
<path d="M255.75 518.044C262.7 519.844 270.68 519.704 277.73 518.514C278.47 518.394 279.21 518.244 279.96 518.084C271.87 518.824 263.79 517.804 256.19 513.684C246.32 508.334 239.03 499.284 233.45 489.464C233.56 489.914 233.69 490.354 233.81 490.804C238.4 501.764 243.07 514.764 255.75 518.044Z" fill="#BE9767"/>
<path d="M360.201 472.054C360.061 481.034 358.381 489.814 353.381 497.354C350.911 503.654 344.351 509.324 339.191 511.964C337.581 512.794 335.911 513.524 334.211 514.204C338.841 514.264 343.341 514.154 347.431 511.404C351.661 508.564 354.511 504.004 356.541 499.424C359.841 491.984 363.101 480.454 360.201 472.054Z" fill="#BE9767"/>
<path d="M191.561 545.334C191.591 545.964 191.651 546.594 191.801 547.224C191.951 547.864 192.381 548.604 193.001 548.574C194.301 552.904 200.631 556.644 205.001 557.364C208.171 557.884 211.341 558.354 214.521 558.804C205.541 556.184 198.461 551.374 191.561 545.334Z" fill="#BE9767"/>
<path d="M287.021 557.114C274.571 558.394 262.291 560.764 249.781 561.504C247.961 561.614 246.141 561.684 244.311 561.734C267.011 563.114 289.831 562.534 312.431 559.964C304.201 557.704 295.931 556.194 287.021 557.114Z" fill="#BE9767"/>
<path d="M302.18 548.154C293.87 546.764 285.04 547.124 277.18 543.794C274.81 542.784 272.59 541.524 270.44 540.134C271.21 540.864 271.98 541.584 272.78 542.284C275.54 544.704 278.78 546.454 282.2 547.734C293.41 547.594 304.05 550.474 315 553.564C320.35 555.074 325.79 556.514 331.25 557.344C333.27 557.014 335.28 556.674 337.29 556.314C325.61 553.454 314.04 550.134 302.18 548.154Z" fill="#BE9767"/>
<path d="M343.28 542.344C347.38 543.354 351.49 544.364 355.64 545.104C357.55 545.444 359.87 545.854 362.21 546.004C362.24 545.934 362.26 545.864 362.29 545.794C356.06 543.744 349.82 542.324 343.28 542.344Z" fill="#BE9767"/>
<path d="M338.281 533.514C344.731 532.654 349.131 528.784 353.501 524.674C347.471 527.874 340.901 530.054 334.311 531.034C331.081 531.514 327.851 531.694 324.631 531.634C323.771 531.774 322.901 531.914 322.031 532.034C320.951 532.194 319.871 531.954 319.141 531.274C318.701 531.224 318.261 531.154 317.811 531.094C324.061 533.994 331.691 534.404 338.281 533.514Z" fill="#BE9767"/>
<path d="M353.67 517.734C358.03 515.064 361.97 511.764 365.16 507.874C365.39 507.114 365.59 506.354 365.76 505.594C366.72 501.274 366.6 496.774 367.41 492.414C367.64 491.174 367.56 487.664 367.28 483.124C367.21 482.904 367.12 482.694 367.05 482.474C366.63 487.544 365.36 492.614 363.9 496.914C360.7 506.314 355.01 515.894 345.08 519.154C348 518.864 350.87 518.414 353.67 517.734Z" fill="#BE9767"/>
<path d="M321.351 543.944C330.511 546.424 340.881 550.484 350.801 550.414C347.121 549.534 343.631 548.524 340.681 547.834C331.351 545.674 322.191 542.894 313.451 538.924C306.031 535.564 300.141 530.184 293.691 525.374C292.691 525.704 291.691 526.054 290.711 526.424C297.871 536.854 309.301 540.684 321.351 543.944Z" fill="#BE9767"/>
<path d="M171.961 352.734C170.511 350.614 168.881 348.574 167.511 346.514C164.231 341.584 162.031 335.844 160.301 330.204C159.871 328.804 159.481 327.394 159.111 325.974C158.551 328.434 157.911 330.864 157.211 333.284C162.301 339.714 165.361 347.794 171.961 352.734Z" fill="#BE9767"/>
<path d="M150.261 351.914C148.871 354.914 147.391 357.874 145.771 360.764C147.171 358.694 150.001 358.084 152.801 358.094C151.811 356.084 150.931 354.024 150.261 351.914Z" fill="#BE9767"/>
<path d="M161.11 355.024C161.32 356.594 161.89 358.084 163.02 359.484C164.86 359.834 166.69 360.224 168.5 360.664C165.82 358.974 163.24 357.194 161.11 355.024Z" fill="#BE9767"/>
<path d="M181.391 364.514C184.821 365.754 188.191 367.154 191.501 368.694C188.371 360.344 183.381 352.574 178.371 345.284C175.111 340.544 171.241 336.244 168.161 331.384C167.321 330.054 166.521 328.704 165.721 327.354C166.151 328.834 166.601 330.304 167.111 331.754C169.341 338.164 172.621 343.274 176.461 348.784C179.571 353.254 182.171 358.084 181.591 363.684C181.571 363.964 181.491 364.244 181.391 364.514Z" fill="#BE9767"/>
<path d="M184.591 343.794C184.921 344.294 185.261 344.794 185.591 345.294C183.581 340.114 181.861 334.824 179.381 329.804C175.861 322.684 172.011 315.594 167.641 308.954C165.911 306.334 164.111 303.764 162.321 301.194C162.241 302.334 162.181 303.484 162.121 304.614C162.071 305.574 161.991 306.544 161.921 307.504C162.141 309.544 162.411 311.584 162.721 313.614C163.501 313.704 164.271 314.084 164.851 314.854C168.441 319.564 170.931 324.924 174.281 329.784C177.551 334.564 181.361 338.964 184.591 343.794Z" fill="#BE9767"/>
<path d="M174.871 298.514C172.721 294.224 170.691 289.874 169.131 285.414C167.951 287.384 166.501 289.194 165.271 291.124C168.941 293.234 172.091 295.744 174.871 298.514Z" fill="#BE9767"/>
<path d="M306.711 261.954C311.601 256.704 315.881 251.404 321.501 246.854C323.571 245.174 326.271 246.714 326.701 248.624C327.361 248.104 328.021 247.574 328.671 247.044C325.011 246.174 321.351 245.314 317.691 244.444C314.971 243.804 311.791 243.264 309.661 245.064C308.151 246.344 307.671 248.424 307.161 250.334C304.591 259.964 298.801 269.084 290.391 274.224C290.531 274.204 290.661 274.174 290.791 274.164C296.481 270.594 302.091 266.894 306.711 261.954Z" fill="#BE9767"/>
<path d="M351.411 262.414C354.721 261.664 357.491 259.704 360.211 257.614C359.241 257.014 358.251 256.434 357.221 255.904C355.281 257.404 353.521 259.104 352.091 261.254C351.831 261.644 351.591 262.034 351.351 262.434C351.381 262.424 351.401 262.414 351.411 262.414Z" fill="#BE9767"/>
<path d="M359.411 278.784C360.691 278.224 362.001 277.724 363.341 277.284C365.691 275.614 368.021 272.804 369.881 270.254C367.391 271.604 364.941 273.014 362.621 274.644C360.971 275.794 359.401 277.064 357.891 278.424C358.391 278.654 358.891 278.774 359.411 278.784Z" fill="#BE9767"/>
<path d="M373.831 277.324C373.101 278.924 372.371 280.514 371.461 281.874C368.931 285.674 366.231 289.394 363.461 293.024C361.621 295.434 359.651 297.714 357.591 299.904C365.781 294.394 371.971 286.994 373.831 277.324Z" fill="#BE9767"/>
<path d="M369.01 313.924C371.63 310.824 373.92 307.034 375.6 303.174C373.03 306.984 370.08 310.564 366.87 313.874C363.24 317.634 359.37 320.974 355.07 323.944C354.35 324.444 353.63 324.934 352.91 325.424C358.43 322.804 363.4 318.884 367.78 314.604C368.14 314.254 368.56 314.044 369.01 313.924Z" fill="#BE9767"/>
<path d="M391.391 350.164C391.091 350.184 390.781 350.224 390.481 350.254C387.541 351.604 384.221 352.484 381.011 352.974C387.421 352.404 393.941 353.284 399.871 355.824C398.681 353.944 397.671 351.964 396.771 349.934C394.711 350.034 392.811 350.054 391.391 350.164Z" fill="#BE9767"/>
<path d="M347.69 353.014C350.17 351.554 352.65 349.174 353.98 348.034C356.68 345.724 358.97 343.054 360.94 340.134C356.99 344.804 351.79 348.514 347.69 353.014Z" fill="#BE9767"/>
<path d="M361.581 431.954C361.541 422.274 364.201 417.264 363.321 407.624C362.031 393.594 360.581 379.044 353.401 366.924C356.161 363.634 359.481 360.864 363.151 358.684C365.921 352.104 369.451 345.944 371.981 339.214C373.561 335.034 374.211 330.554 374.341 326.034C371.661 333.254 368.541 340.274 363.781 346.374C359.051 352.434 348.331 363.424 339.791 359.134C338.331 358.404 337.941 356.364 338.711 355.034C342.771 348.024 349.981 343.994 355.111 337.914C357.941 334.554 361.311 330.324 363.741 325.854C356.931 330.754 349.231 334.194 340.621 334.694C337.811 334.864 336.971 331.404 338.501 329.574C344.531 322.374 353.591 318.434 360.321 311.934C363.781 308.584 367.031 304.964 369.821 301.044C367.301 303.064 364.671 304.964 361.901 306.814C354.621 311.664 346.231 316.624 337.221 316.654C335.031 316.664 333.361 314.064 334.631 312.144C341.121 302.264 352.121 295.684 358.531 285.864C352.881 288.914 347.851 293.144 343.081 297.404C340.571 299.644 336.651 296.804 338.371 293.764C343.101 285.434 349.371 277.354 356.941 271.414C360.451 268.664 364.321 266.484 368.231 264.384C367.991 264.104 367.741 263.834 367.491 263.564C365.421 264.124 363.381 264.764 361.391 265.494C354.511 268.004 346.621 271.894 343.201 278.744C341.241 282.114 336.311 279.144 338.021 275.714C338.281 275.194 338.561 274.704 338.861 274.214C342.101 268.174 344.231 261.464 348.471 256.004C349.271 254.974 350.161 254.054 351.081 253.204C350.471 252.974 349.851 252.744 349.231 252.524C348.821 252.744 348.411 252.964 348.011 253.204C343.881 256.774 340.721 261.744 337.281 265.734C335.331 268.004 331.341 265.594 332.271 262.814C333.941 257.814 337.401 253.534 341.771 250.244C339.411 249.604 337.041 249.034 334.711 248.474C334.641 248.454 334.571 248.444 334.491 248.424C334.611 249.214 334.371 250.054 333.531 250.754C329.551 254.094 325.361 257.144 320.991 259.934C316.031 266.204 309.781 272.554 302.581 276.484C307.171 275.814 311.791 275.404 316.431 275.244C320.301 275.114 320.271 281.084 316.431 281.244C306.281 281.674 296.531 284.744 286.541 286.234C284.811 286.784 283.111 287.394 281.411 288.054C291.861 285.344 302.491 284.304 313.231 286.654C322.471 288.674 332.761 291.794 339.661 298.594C341.201 300.114 340.571 303.124 338.341 303.604C317.811 308.024 296.951 300.534 276.201 302.574C270.751 303.114 265.101 303.754 259.471 304.724C260.521 305.784 260.831 307.424 259.321 308.624C249.191 316.644 237.521 322.014 226.331 328.264C233.321 327.824 240.261 326.674 247.051 324.934C256.571 322.494 264.911 316.944 274.441 314.514C277.231 313.804 279.651 317.444 277.361 319.524C268.721 327.374 258.391 332.714 247.891 337.644C243.171 339.854 238.481 342.164 233.611 344.034C229.761 345.514 225.811 346.824 222.131 348.684C228.801 352.374 238.041 351.784 245.171 351.204C254.801 350.414 265.791 349.144 274.771 345.494C278.351 344.044 279.901 349.844 276.371 351.284C266.201 355.414 253.441 356.774 242.521 357.394C233.031 357.934 221.821 357.494 214.561 350.514C213.081 349.094 213.621 346.864 215.171 345.804C223.511 340.104 234.221 337.434 243.361 333.174C245.081 332.374 246.811 331.564 248.531 330.734C248.011 330.874 247.491 331.014 246.961 331.144C236.621 333.604 225.961 334.914 215.331 334.374C212.321 334.224 211.301 330.434 213.821 328.784C226.451 320.524 240.781 315.014 252.941 306.034C241.791 308.544 231.081 312.694 222.561 320.214C219.681 322.764 215.421 318.534 218.321 315.974C232.621 303.334 252.051 299.384 270.471 297.214C280.931 295.984 290.951 295.804 301.441 296.994C310.921 298.074 320.541 299.604 330.071 298.814C328.511 297.904 326.861 297.114 325.171 296.414C324.701 297.004 323.951 297.374 322.911 297.264C316.451 296.564 310.021 295.634 303.511 295.564C302.981 295.554 302.531 295.434 302.151 295.234C289.281 295.294 276.651 295.754 263.831 297.564C250.651 299.424 237.551 301.904 224.201 302.034C220.331 302.074 220.341 296.074 224.201 296.034C235.601 295.924 246.811 294.074 258.051 292.394C258.051 291.884 258.181 291.384 258.431 290.944C246.931 291.804 235.261 290.974 224.421 288.994C220.621 288.294 222.241 282.514 226.021 283.204C239.081 285.594 253.541 286.184 267.271 283.904C250.781 283.824 234.671 279.184 229.141 263.064C227.881 259.394 233.681 257.834 234.931 261.464C239.741 275.474 255.351 278.574 270.561 277.984C262.711 276.694 255.321 272.434 250.781 265.874C245.601 258.384 244.191 248.994 242.911 239.974C235.831 241.184 229.081 243.844 222.401 246.484C216.231 248.914 210.071 251.354 203.901 253.784C208.911 254.374 213.861 255.484 218.551 256.984C222.221 258.154 220.641 263.944 216.951 262.774C210.151 260.604 202.711 259.194 195.401 259.304C202.251 262.404 209.031 265.484 213.191 272.324C214.781 274.944 211.651 277.864 209.091 276.424C202.251 272.594 195.671 268.344 188.811 264.564C192.591 270.134 196.831 275.494 201.321 280.234C206.021 285.194 212.721 290.964 212.921 298.344C212.981 300.664 210.341 302.014 208.411 300.934C201.561 297.104 193.611 290.804 188.181 283.354C191.981 294.794 199.021 305.064 210.071 310.044C212.671 311.214 211.681 314.324 209.581 315.254C209.971 315.444 210.351 315.644 210.751 315.834C213.131 316.934 212.481 319.664 210.741 320.804C211.071 322.734 209.551 325.044 207.071 324.384C199.221 322.294 194.481 315.154 191.011 307.994C188.621 305.024 186.561 301.734 184.861 298.154C182.201 292.554 179.371 287.234 176.471 281.764C175.091 279.174 174.041 276.554 173.411 273.844C173.191 274.504 172.991 275.164 172.791 275.834C174.711 286.734 180.801 296.614 185.721 306.644C191.611 318.674 195.691 332.534 206.591 341.154C208.321 342.524 207.661 344.484 206.221 345.474C206.571 345.854 206.911 346.234 207.271 346.604C209.971 349.374 205.731 353.614 203.031 350.844C189.351 336.804 184.481 315.924 170.561 302.574C171.971 304.634 173.371 306.704 174.681 308.834C179.341 316.424 183.771 324.404 187.281 332.604C188.921 336.434 190.101 340.424 191.601 344.314C193.121 348.254 195.251 351.874 197.001 355.704C199.481 361.104 201.111 366.764 198.561 372.324C199.251 372.704 199.951 373.064 200.631 373.454C195.201 380.194 193.291 389.114 193.101 397.774C192.731 414.614 192.371 431.484 193.371 448.304C193.921 457.454 194.861 466.734 193.081 475.724C192.741 477.464 192.291 479.184 191.901 480.914C196.781 490.604 200.001 501.074 205.731 510.324C208.641 515.024 212.821 519.034 217.201 522.364C219.211 523.894 221.781 525.804 224.501 527.064C217.331 518.344 210.011 509.624 205.111 499.424C200.621 490.074 195.851 478.234 198.851 467.774C199.531 465.404 203.131 464.684 204.331 467.054C207.021 472.384 209.941 477.584 212.951 482.734C211.681 478.794 210.591 474.804 210.321 470.614C210.111 467.374 214.341 466.894 215.911 469.104C221.811 477.414 224.831 487.424 228.681 496.764C230.241 500.544 231.981 504.544 234.151 508.264C231.791 503.394 229.791 498.314 228.331 493.134C228.151 492.704 227.971 492.274 227.791 491.844C227.551 491.284 227.521 490.774 227.601 490.324C225.761 482.664 225.161 474.824 226.431 467.104C226.801 464.864 230.011 464.234 231.441 465.784C235.711 470.394 237.931 476.374 241.991 481.104C246.381 486.214 252.071 490.444 257.611 494.184C266.221 499.994 276.161 504.034 286.441 504.924C278.131 502.084 269.631 498.274 262.051 493.984C255.981 490.554 250.821 486.204 246.811 481.014C242.881 476.764 239.951 471.864 239.011 466.304C238.941 465.904 238.961 465.534 239.021 465.184C238.761 464.214 238.531 463.224 238.331 462.214C237.581 458.434 243.371 456.834 244.121 460.614C244.581 462.974 245.221 465.214 246.021 467.344C246.051 467.354 246.081 467.354 246.111 467.374C264.251 474.354 283.691 469.314 302.501 471.354C305.041 471.634 306.521 474.434 304.621 476.474C296.691 485.004 286.871 488.414 276.461 488.324C278.371 489.114 280.271 489.994 282.291 490.574C288.551 492.354 294.611 489.734 299.921 486.514C308.971 481.024 316.731 471.224 320.371 461.304C321.071 459.414 322.991 458.954 324.471 459.464C326.841 457.664 330.831 460.364 328.911 463.274C320.961 475.314 313.081 490.114 300.351 496.714C316.601 492.104 327.411 476.234 334.291 460.244C335.621 457.144 339.571 459.234 339.881 461.754C341.271 472.954 334.461 484.174 327.271 492.184C322.441 497.554 316.881 501.504 310.971 504.984C317.091 502.814 322.971 499.604 328.121 496.504C333.531 493.254 338.261 488.864 340.591 482.894C343.201 476.214 343.431 468.834 343.751 461.754C343.871 458.964 347.931 457.434 349.341 460.244C353.121 467.744 353.531 475.354 353.081 483.124C355.371 473.294 354.051 462.234 352.701 452.684C352.271 449.644 356.651 446.994 358.181 450.374C360.681 455.884 363.251 461.414 365.921 466.874C365.021 457.854 363.951 449.504 363.301 447.574C361.641 442.574 361.601 437.214 361.581 431.954ZM320.651 442.454C308.431 449.364 293.601 451.134 279.781 451.004C273.161 450.944 266.531 450.364 260.001 449.304C255.771 448.614 251.451 447.574 247.121 446.904C247.461 448.524 246.551 450.354 244.301 450.424C242.151 450.494 240.041 450.324 237.961 449.984C235.571 449.844 233.091 449.664 230.671 449.334C229.641 449.744 228.351 449.554 227.391 448.764C223.941 448.004 220.821 446.754 218.581 444.564C217.441 446.134 214.801 446.224 213.541 444.354C212.321 442.544 211.151 440.694 210.031 438.804C209.811 438.584 209.611 438.314 209.451 437.974C209.341 437.744 209.251 437.514 209.151 437.284C202.521 425.654 198.061 412.634 198.071 399.184C198.071 395.204 203.601 395.474 204.071 399.184C205.181 407.974 207.401 416.514 210.441 424.784C210.021 422.824 209.621 420.884 209.301 418.974C207.881 410.494 205.741 402.144 204.961 393.564C204.651 390.174 210.191 389.494 210.851 392.764C213.281 404.714 216.481 416.444 221.501 427.394C220.741 424.094 220.161 420.734 219.341 417.454C216.791 407.204 213.601 397.064 213.381 386.424C213.301 382.544 219.201 382.584 219.381 386.424C219.911 397.484 223.911 407.744 227.411 418.114C229.461 424.194 231.531 430.784 234.841 436.484C234.361 434.624 233.751 432.794 233.231 431.054C231.901 426.694 230.801 422.344 229.841 417.884C228.591 412.094 227.291 406.364 225.561 400.694C224.111 395.924 221.411 391.384 220.641 386.464C220.051 382.684 225.111 381.174 226.431 384.864C228.241 389.944 230.411 394.794 234.341 398.604C235.311 399.544 236.281 400.434 237.231 401.334C237.141 400.884 237.051 400.434 236.981 399.994C236.441 396.454 236.261 392.774 236.121 389.194C235.821 381.724 236.571 374.144 238.771 366.994C239.271 365.354 240.691 364.764 242.021 364.924C242.411 363.984 243.281 363.304 244.641 363.424C266.531 365.364 286.841 376.094 304.591 388.494C314.821 395.644 327.831 403.674 334.291 414.634C341.081 426.174 330.381 436.954 320.651 442.454Z" fill="#BE9767"/>
<path d="M290.24 476.784C278.89 476.824 267.48 477.884 256.37 476.194C268.06 478.794 278.96 481.854 290.24 476.784Z" fill="#BE9767"/>
<path d="M205.08 263.824C205.42 260.774 205.76 257.693 206.73 254.783C208.85 248.433 213.85 243.363 219.55 239.843C225.25 236.323 231.67 234.183 238.02 232.073C238.18 265.243 234.38 298.433 226.7 330.713C225.49 335.803 224.15 340.964 221.39 345.413C219.73 348.093 217.57 350.473 216.16 353.303C214.51 356.613 213.96 360.333 213.2 363.953C209.66 380.723 200.87 396.343 188.37 408.063C190.58 395.203 192.79 382.333 195 369.473C196.31 361.854 197.62 354.223 198.1 346.513C199.85 318.783 202.04 291.504 205.08 263.824Z" fill="#252E55"/>
<path d="M368.15 471.094C369.02 467.624 370.22 464.224 370.85 460.704C373.12 447.994 367.89 435.274 362.7 423.454C343.96 380.684 324.13 337.294 319.6 290.814C318.04 274.814 318.33 258.704 318.62 242.644C318.64 241.464 318.69 240.184 319.42 239.244C320.91 237.334 323.92 238.134 326.14 239.104C331.57 241.484 336.99 243.854 342.42 246.234C343.83 246.854 345.33 247.544 346.13 248.854C346.84 250.004 346.87 251.434 346.89 252.784C347.14 272.554 347.39 292.324 347.64 312.094C347.9 332.814 348.37 354.404 357.87 372.824C361.12 379.114 365.38 384.924 367.77 391.594C371.76 402.684 370.24 415.064 373.38 426.424C375.59 434.424 380.12 442.104 379.46 450.384C378.88 457.654 374.36 463.974 372.46 471.014C370.38 478.684 371.49 486.854 373.24 494.604C373.84 497.274 376.43 506.454 373.11 508.384C370.25 510.044 367.86 505.684 367.08 503.444C363.92 494.404 365.87 480.144 368.15 471.094Z" fill="#252E55"/>
<path d="M335.261 440.584L232.851 432.394L243.711 296.684L346.111 304.874L351.111 309.874L335.261 440.584Z" fill="#252E55"/>
<path d="M337.261 442.584L234.851 434.394L245.711 298.684L345.191 305.734L349.151 309.524L337.261 442.584Z" fill="white"/>
<path d="M351.118 309.868L248.707 301.68L237.856 437.394L340.267 445.583L351.118 309.868Z" fill="#252E55"/>
<path d="M253.261 395.983C263.981 396.683 274.101 398.093 283.991 402.533C295.481 407.693 304.591 416.773 315.881 422.253C323.581 425.993 332.891 427.633 341.751 426.923L342.351 419.384C337.951 417.624 333.701 415.143 329.721 413.223C319.851 408.453 309.991 402.813 301.461 395.893C292.081 388.283 283.331 381.973 271.561 378.533C260.221 375.223 248.481 374.843 237.171 378.253L235.921 393.843C240.811 395.953 250.361 395.793 253.261 395.983Z" fill="#252E55"/>
<path d="M156.511 357.944C153.831 366.374 152.101 373.614 150.871 381.424C148.691 395.244 147.941 406.424 146.811 420.374C145.921 431.284 143.561 443.874 152.171 450.634C158.571 455.654 186.081 460.944 203.081 462.544C207.251 462.934 211.421 463.324 215.601 463.724C229.241 465.004 242.931 466.284 256.611 465.534C261.891 465.244 267.151 464.644 272.431 464.554C291.781 464.214 307.261 470.884 326.161 475.024C328.421 475.514 336.481 473.774 337.901 471.954C340.031 469.234 339.091 466.344 345.131 464.814C348.641 463.924 349.591 458.734 347.171 456.044C349.251 456.404 351.801 449.584 349.211 444.854C352.501 444.344 355.021 438.944 352.271 437.064C356.071 436.934 357.431 433.114 355.951 429.614C340.691 427.464 333.091 419.014 320.611 421.754C314.211 423.164 300.821 429.314 294.661 431.544C289.391 433.454 263.161 431.654 244.001 426.284C234.511 423.624 224.991 420.954 215.861 417.244C207.881 413.994 201.681 411.074 191.851 408.394C191.221 408.224 189.181 407.074 189.421 406.484C192.611 398.694 197.311 383.464 197.741 370.484C187.911 361.524 170.301 357.214 156.511 357.944Z" fill="#F8A383"/>
<path d="M326.091 472.024C321.181 471.474 316.681 469.604 312.141 467.774C303.521 464.294 294.261 462.934 285.601 459.604C281.371 459.294 277.141 459.164 273.061 459.114C272.381 459.104 271.831 458.904 271.391 458.594C268.141 458.844 264.861 458.924 261.581 458.924C254.191 458.924 246.761 459.344 239.381 459.154C224.251 458.764 209.381 455.144 194.531 452.554C181.071 450.204 155.961 444.434 156.191 426.744C156.191 426.544 156.221 426.354 156.251 426.174C152.901 413.934 155.601 399.604 157.881 387.414C159.671 377.824 161.331 367.284 165.431 358.144C162.361 357.864 159.351 357.784 156.511 357.934C153.831 366.364 152.101 373.604 150.871 381.414C148.691 395.234 147.941 406.414 146.811 420.364C145.921 431.274 143.561 443.864 152.171 450.624C158.571 455.644 186.081 460.934 203.081 462.534C207.251 462.924 211.421 463.314 215.601 463.714C229.241 464.994 242.931 466.274 256.611 465.524C261.891 465.234 267.151 464.634 272.431 464.544C291.781 464.204 307.261 470.874 326.161 475.014C328.421 475.504 336.481 473.764 337.901 471.944C338.281 471.454 338.571 470.954 338.811 470.464C334.581 471.164 330.491 472.514 326.091 472.024Z" fill="#E27554"/>
<path d="M355.98 429.593C340.72 427.443 333.12 418.993 320.64 421.733C314.24 423.143 300.85 429.293 294.69 431.523C294.29 431.673 293.75 431.793 293.11 431.893C293.27 431.893 293.42 431.903 293.58 431.903C300.07 430.833 306.82 428.133 313.01 426.603C320.37 424.793 327.05 424.913 334.24 427.593C338.74 429.273 342.87 432.043 347.4 433.563C350.16 434.483 353.12 434.243 355.91 434.983C356.74 433.533 356.79 431.523 355.98 429.593Z" fill="#E27554"/>
<path d="M249.621 238.404C256.401 251.704 269.531 262.854 284.461 262.824C286.381 262.824 288.32 262.634 290.14 262.034C293.561 260.914 296.361 258.454 298.991 255.984C311.351 244.334 322.281 230.704 328.151 214.774C334.021 198.844 334.331 180.344 326.331 165.374C324.411 161.784 322.011 158.394 318.931 155.734C316.091 153.284 312.711 151.504 309.161 150.284C297.511 146.304 284.371 148.594 273.451 154.304C262.541 160.014 253.581 168.844 245.611 178.234C242.521 181.874 238.471 186.514 237.651 191.404C236.851 196.204 239.661 198.294 240.511 203.074C242.701 215.264 243.891 227.154 249.621 238.404Z" fill="#F8A383"/>
<path d="M280.57 245.124C278.27 244.824 276.75 243.924 274.29 244.194C273.07 244.324 271.94 244.384 270.73 244.294C273.89 245.544 277.23 246.324 280.78 246.554C284.89 246.824 290.01 246.604 294.48 245.484C292.48 244.704 290.4 244.104 288.37 243.974C285.48 243.784 283.5 245.504 280.57 245.124Z" fill="#E27554"/>
<path d="M329.401 192.154C324.811 193.194 320.221 194.114 315.601 195.004C311.031 195.874 305.531 196.494 301.381 198.814C301.321 198.874 301.271 198.934 301.211 198.984C298.601 201.044 295.801 203.094 294.051 206.004C292.251 209.014 292.121 212.344 291.971 215.704C293.781 213.894 295.951 212.534 298.631 211.984C304.161 210.844 309.211 214.684 314.581 213.354C320.691 211.844 325.501 206.784 329.671 202.354C330.381 201.604 331.111 200.814 331.841 199.994C332.221 197.194 332.421 194.374 332.441 191.554C331.311 191.764 330.261 191.954 329.401 192.154Z" fill="#E27554"/>
<path d="M302.211 199.644C305.391 195.824 311.561 193.554 315.511 191.724C318.611 189.764 321.901 188.104 325.471 186.954C325.611 186.904 325.761 186.884 325.901 186.884C327.961 186.054 330.051 185.344 332.121 184.914C331.431 178.094 329.571 171.444 326.331 165.374C324.411 161.784 322.011 158.394 318.931 155.734C316.091 153.284 312.711 151.504 309.161 150.284C297.511 146.304 284.371 148.594 273.451 154.304C262.541 160.014 253.581 168.844 245.611 178.234C242.521 181.874 238.471 186.514 237.651 191.404C236.851 196.204 239.661 198.294 240.511 203.074C240.651 203.834 240.781 204.594 240.911 205.354C241.761 203.904 242.481 202.334 243.901 201.344C245.651 200.124 247.281 200.184 249.181 200.704C252.121 200.324 255.241 200.584 257.901 201.634C259.731 202.354 261.441 203.404 263.201 204.314C263.691 204.394 264.181 204.504 264.711 204.694C265.731 205.064 266.541 205.554 267.471 205.944C267.581 205.964 267.691 206.004 267.811 206.024C270.401 206.484 273.081 205.634 275.661 206.184C279.391 206.974 280.731 210.084 280.271 213.664C279.661 218.414 276.671 220.474 273.831 223.464C273.761 223.604 273.691 223.744 273.631 223.884C272.751 225.854 271.591 228.644 273.231 230.654C274.071 231.684 276.551 231.674 277.761 232.084C278.791 232.434 282.931 235.434 283.581 235.034C283.671 234.984 283.721 234.904 283.741 234.814C283.141 233.974 282.331 232.814 281.411 232.314C280.681 231.914 279.75 231.944 279 231.514C277.651 230.724 276.781 229.174 276.811 227.604C276.851 225.444 278.311 224.184 279.731 222.894C280.511 221.854 281.41 220.884 282 219.894C283.64 217.144 283.051 214.904 283.011 211.914C283.001 211.394 283.021 210.914 283.061 210.474C283.011 209.794 283.171 209.164 283.471 208.584C283.781 207.814 284.271 207.244 284.971 206.864C287.261 205.044 291.161 203.914 294.351 203.454C296.821 201.904 299.431 200.454 302.211 199.644Z" fill="#E27554"/>
<path d="M233.39 195.244C235.19 199.584 237.41 203.754 240.02 207.664C240.45 205.084 240.88 202.514 241.31 199.934C241.43 201.934 241.55 203.934 241.67 205.934C241.55 199.504 242.29 193.054 243.85 186.804C244.8 192.784 250.04 197.824 256.06 198.534C256.12 197.564 256.18 196.594 256.23 195.624C262.6 199.344 269.92 201.424 277.3 201.604C276.39 200.914 275.47 200.224 274.56 199.544C280.15 200.044 285.57 202.394 289.75 206.144C289.11 204.624 288.46 203.104 287.82 201.574C294.8 206.324 302.67 209.744 310.9 211.604C309.05 212.624 306.4 210.694 306.8 208.614C312.48 210.534 317.15 215.214 319.07 220.894C319.3 218.404 319.53 215.904 319.77 213.414C320.23 217.614 320.69 221.824 321.15 226.024C323.07 222.054 324.99 218.094 326.92 214.124C327.07 215.464 327.21 216.814 327.36 218.154C336.56 208.424 343.3 196.384 346.79 183.464C350.55 169.564 350.46 154.314 344.62 141.154C345.53 141.684 346.44 142.204 347.35 142.734C343.18 134.084 337.69 126.084 331.13 119.074C332.54 119.484 333.96 119.894 335.37 120.304C331.16 110.854 321.76 104.714 312.1 101.004C305.99 98.6536 298.49 97.2436 293.36 101.324C292.71 101.844 292.07 102.454 291.25 102.584C290.15 102.754 289.16 101.984 288.23 101.364C282.19 97.3636 274.07 98.8736 267.37 101.634C254.79 106.824 243.89 115.984 236.61 127.474C238.11 125.594 239.93 123.964 241.97 122.684C235.28 132.334 230.32 143.174 227.41 154.554C228.56 152.904 229.72 151.264 230.87 149.614C228.19 159.304 226.94 170.074 228.4 180.074C228.8 179.534 229.58 178.884 229.96 178.384C231.39 185.854 228.39 192.684 231.81 200.314C232.41 198.684 232.89 196.964 233.39 195.244Z" fill="#252E55"/>
<path d="M393.41 350.163C389.6 350.073 385.84 350.893 382.11 351.703C378.03 352.593 373.93 353.493 370.01 354.923C364.98 356.763 357.34 361.273 353.23 364.713C354.25 371.013 357.14 375.773 359.02 381.393C352.89 380.013 348.15 377.663 342.02 376.283C336.56 375.053 331.08 373.823 325.83 371.863C322.23 370.513 318.76 368.833 315.3 367.163C304.88 362.113 294.88 355.983 284.45 350.923C280.26 348.893 275.45 347.773 272.81 343.933C271.86 342.553 271.16 340.993 270 339.793C268.94 338.693 267.56 337.973 266.21 337.263C262.55 335.343 258.88 333.423 255.22 331.503C252.78 330.223 250.31 328.933 247.65 328.193C243.99 327.183 240.17 327.803 236.37 327.903C233.82 327.973 231.14 327.533 228.85 328.643C226.65 329.713 224.99 331.623 223.08 333.163C221.18 334.703 219.21 335.303 216.31 336.563C215.63 339.543 219.65 342.683 222.5 341.563C218.54 344.333 219.18 348.933 222.03 350.753C218.92 351.303 216.95 352.804 216.04 355.354C215 358.284 217.05 361.783 220.96 362.673C218.62 363.443 218.29 368.313 220.15 370.033C221.52 371.293 222.64 371.383 225.13 371.893C223.09 372.973 222.32 376.713 223.86 378.333C225.4 379.953 227.28 380.813 229.49 381.173C236.67 382.343 242.61 381.983 249.82 381.053C255.43 380.333 262.53 379.453 268.08 380.523C282.71 383.343 293.54 395.333 305.47 404.263C321.32 416.123 338.24 425.403 356.46 433.143C367.56 437.863 377.88 442.083 389.65 444.713C391.44 445.113 397.79 444.623 398.69 443.113C405.52 431.593 408.11 417.623 405.87 404.423C405.4 401.673 404.73 398.963 404.07 396.253C403.4 393.553 402.74 390.853 402.07 388.153C399.11 376.113 396.38 362.203 393.41 350.163Z" fill="#F8A383"/>
<path d="M381.59 434.213C368.38 430.773 354.86 426.193 342.41 420.613C334.97 417.273 328.64 412.703 322.15 407.853C315.69 403.033 308.93 398.663 302.22 394.193C295.11 389.453 287.7 385.163 280.68 380.293C275.8 376.903 271.5 375.363 266.32 374.793C255.74 376.543 243.83 380.513 233.28 376.793C231.59 376.193 230.32 374.093 231.49 372.383C232.42 371.023 233.24 370.513 234.7 370.073C234.59 369.913 234.49 369.733 234.38 369.563C233.78 370.543 232.68 371.143 231.24 370.663C230.08 370.273 229.47 370.043 228.48 369.343C226.88 368.203 226.2 365.133 228.48 364.163C230.22 363.423 231.99 362.783 233.76 362.143C233.06 361.853 232.4 361.503 231.79 361.043C231.03 361.413 230.11 361.433 229.16 360.833C224.28 357.753 224.8 353.733 229.93 351.473C230.95 351.023 231.97 350.593 232.99 350.153C230.9 349.823 228.98 348.943 227.51 347.333C226.48 346.753 225.85 345.633 226.41 344.163C228.31 339.253 234.85 337.743 239.38 336.453C241.66 335.803 244.12 335.323 246.59 334.803C244.72 334.663 242.86 334.473 241 334.263C240.59 334.503 240.1 334.663 239.51 334.683C234.06 334.783 229.51 336.493 224.31 337.753C221.3 338.483 218.72 338.443 216.24 337.293C216.29 340.023 219.88 342.583 222.49 341.563C218.53 344.333 219.17 348.933 222.02 350.753C218.91 351.303 216.94 352.803 216.03 355.353C214.99 358.283 217.04 361.783 220.95 362.673C218.61 363.443 218.28 368.313 220.14 370.033C221.51 371.293 222.63 371.383 225.12 371.893C223.08 372.973 222.31 376.713 223.85 378.333C225.39 379.953 227.27 380.813 229.48 381.173C236.66 382.343 242.6 381.983 249.81 381.053C255.42 380.333 262.52 379.453 268.07 380.523C282.7 383.343 293.53 395.333 305.46 404.263C321.31 416.123 338.23 425.403 356.45 433.143C367.55 437.863 377.87 442.083 389.64 444.713C391.43 445.113 397.78 444.623 398.68 443.113C399.87 441.113 400.92 439.033 401.85 436.903C395.11 437.103 388.21 435.943 381.59 434.213Z" fill="#E27554"/>
<path d="M363.07 382.793C368.12 384.213 373.05 385.253 377.51 388.203C383.99 392.493 388.32 398.993 393.73 404.413C393.51 399.503 389.32 394.363 386.3 391.163C381.74 386.333 375.81 384.073 370.83 379.863C365.48 375.333 362.12 368.423 361.32 361.503C361.24 360.783 361.19 360.043 361.16 359.303C358.15 361.073 355.27 363.023 353.24 364.723C354.25 370.973 357.1 375.713 358.98 381.263C360.28 381.833 361.62 382.393 363.07 382.793Z" fill="#E27554"/>
</g>
<defs>
<linearGradient id="paint0_linear" x1="76.5996" y1="0.693359" x2="424.152" y2="406.412" gradientUnits="userSpaceOnUse">
<stop stop-color="#4BCCC4"/>
<stop offset="0.0833333" stop-color="#4BCAC6"/>
<stop offset="0.335703" stop-color="#4CC6CB"/>
<stop offset="1" stop-color="#4EB9DA"/>
</linearGradient>
<clipPath id="clip0">
<rect x="0.799805" y="0.84668" width="562" height="562" fill="white"/>
</clipPath>
</defs>
</svg>
